<mxfile host="app.diagrams.net" modified="2023-10-29T20:27:12.647Z" agent="Mozilla/5.0 (Linux; Android 10; K) AppleWebKit/537.36 (KHTML, like Gecko) Chrome/118.0.0.0 Mobile Safari/537.36" etag="Fy-aZLdVinvwFWoiU6ht" version="22.0.8" type="google">
  <diagram name="Page-1" id="VGKKwNdp99vGUlAD8u1k">
    <mxGraphModel grid="1" page="1" gridSize="10" guides="1" tooltips="1" connect="1" arrows="1" fold="1" pageScale="1" pageWidth="827" pageHeight="1169" math="0" shadow="0">
      <root>
        <mxCell id="0" />
        <mxCell id="1" parent="0" />
        <mxCell id="LCbmhWneloomzZQ0_-yc-1" value="Personnage" style="swimlane;fontStyle=0;childLayout=stackLayout;horizontal=1;startSize=26;fillColor=none;horizontalStack=0;resizeParent=1;resizeParentMax=0;resizeLast=0;collapsible=1;marginBottom=0;whiteSpace=wrap;html=1;" vertex="1" parent="1">
          <mxGeometry x="324" y="50" width="140" height="132" as="geometry" />
        </mxCell>
        <mxCell id="LCbmhWneloomzZQ0_-yc-2" value="&lt;u&gt;nom&lt;/u&gt;" style="text;strokeColor=none;fillColor=none;align=left;verticalAlign=top;spacingLeft=4;spacingRight=4;overflow=hidden;rotatable=0;points=[[0,0.5],[1,0.5]];portConstraint=eastwest;whiteSpace=wrap;html=1;" vertex="1" parent="LCbmhWneloomzZQ0_-yc-1">
          <mxGeometry y="26" width="140" height="26" as="geometry" />
        </mxCell>
        <mxCell id="LCbmhWneloomzZQ0_-yc-3" value="hp" style="text;strokeColor=none;fillColor=none;align=left;verticalAlign=top;spacingLeft=4;spacingRight=4;overflow=hidden;rotatable=0;points=[[0,0.5],[1,0.5]];portConstraint=eastwest;whiteSpace=wrap;html=1;" vertex="1" parent="LCbmhWneloomzZQ0_-yc-1">
          <mxGeometry y="52" width="140" height="28" as="geometry" />
        </mxCell>
        <mxCell id="LCbmhWneloomzZQ0_-yc-4" value="exp" style="text;strokeColor=none;fillColor=none;align=left;verticalAlign=top;spacingLeft=4;spacingRight=4;overflow=hidden;rotatable=0;points=[[0,0.5],[1,0.5]];portConstraint=eastwest;whiteSpace=wrap;html=1;" vertex="1" parent="LCbmhWneloomzZQ0_-yc-1">
          <mxGeometry y="80" width="140" height="26" as="geometry" />
        </mxCell>
        <mxCell id="LCbmhWneloomzZQ0_-yc-135" value="argent" style="text;strokeColor=none;fillColor=none;align=left;verticalAlign=top;spacingLeft=4;spacingRight=4;overflow=hidden;rotatable=0;points=[[0,0.5],[1,0.5]];portConstraint=eastwest;whiteSpace=wrap;html=1;" vertex="1" parent="LCbmhWneloomzZQ0_-yc-1">
          <mxGeometry y="106" width="140" height="26" as="geometry" />
        </mxCell>
        <mxCell id="LCbmhWneloomzZQ0_-yc-6" value="Statistiques" style="swimlane;fontStyle=0;childLayout=stackLayout;horizontal=1;startSize=26;fillColor=none;horizontalStack=0;resizeParent=1;resizeParentMax=0;resizeLast=0;collapsible=1;marginBottom=0;whiteSpace=wrap;html=1;" vertex="1" parent="1">
          <mxGeometry x="64" y="50" width="140" height="130" as="geometry" />
        </mxCell>
        <mxCell id="LCbmhWneloomzZQ0_-yc-20" value="&lt;u&gt;id&lt;/u&gt;" style="text;strokeColor=none;fillColor=none;align=left;verticalAlign=top;spacingLeft=4;spacingRight=4;overflow=hidden;rotatable=0;points=[[0,0.5],[1,0.5]];portConstraint=eastwest;whiteSpace=wrap;html=1;" vertex="1" parent="LCbmhWneloomzZQ0_-yc-6">
          <mxGeometry y="26" width="140" height="26" as="geometry" />
        </mxCell>
        <mxCell id="LCbmhWneloomzZQ0_-yc-7" value="force" style="text;strokeColor=none;fillColor=none;align=left;verticalAlign=top;spacingLeft=4;spacingRight=4;overflow=hidden;rotatable=0;points=[[0,0.5],[1,0.5]];portConstraint=eastwest;whiteSpace=wrap;html=1;" vertex="1" parent="LCbmhWneloomzZQ0_-yc-6">
          <mxGeometry y="52" width="140" height="26" as="geometry" />
        </mxCell>
        <mxCell id="LCbmhWneloomzZQ0_-yc-8" value="dex" style="text;strokeColor=none;fillColor=none;align=left;verticalAlign=top;spacingLeft=4;spacingRight=4;overflow=hidden;rotatable=0;points=[[0,0.5],[1,0.5]];portConstraint=eastwest;whiteSpace=wrap;html=1;" vertex="1" parent="LCbmhWneloomzZQ0_-yc-6">
          <mxGeometry y="78" width="140" height="26" as="geometry" />
        </mxCell>
        <mxCell id="LCbmhWneloomzZQ0_-yc-9" value="intel" style="text;strokeColor=none;fillColor=none;align=left;verticalAlign=top;spacingLeft=4;spacingRight=4;overflow=hidden;rotatable=0;points=[[0,0.5],[1,0.5]];portConstraint=eastwest;whiteSpace=wrap;html=1;" vertex="1" parent="LCbmhWneloomzZQ0_-yc-6">
          <mxGeometry y="104" width="140" height="26" as="geometry" />
        </mxCell>
        <mxCell id="LCbmhWneloomzZQ0_-yc-12" value="" style="endArrow=none;html=1;rounded=0;" edge="1" parent="1">
          <mxGeometry relative="1" as="geometry">
            <mxPoint x="204" y="103" as="sourcePoint" />
            <mxPoint x="324" y="102.5" as="targetPoint" />
          </mxGeometry>
        </mxCell>
        <mxCell id="LCbmhWneloomzZQ0_-yc-13" value="&amp;lt; Possède" style="edgeLabel;html=1;align=center;verticalAlign=middle;resizable=0;points=[];" connectable="0" vertex="1" parent="LCbmhWneloomzZQ0_-yc-12">
          <mxGeometry x="-0.05" relative="1" as="geometry">
            <mxPoint as="offset" />
          </mxGeometry>
        </mxCell>
        <mxCell id="LCbmhWneloomzZQ0_-yc-14" value="1" style="text;html=1;align=center;verticalAlign=middle;resizable=0;points=[];autosize=1;strokeColor=none;fillColor=none;" vertex="1" parent="1">
          <mxGeometry x="204" y="78" width="30" height="30" as="geometry" />
        </mxCell>
        <mxCell id="LCbmhWneloomzZQ0_-yc-15" value="*" style="text;html=1;align=center;verticalAlign=middle;resizable=0;points=[];autosize=1;strokeColor=none;fillColor=none;" vertex="1" parent="1">
          <mxGeometry x="294" y="78" width="30" height="30" as="geometry" />
        </mxCell>
        <mxCell id="LCbmhWneloomzZQ0_-yc-16" value="Metier" style="swimlane;fontStyle=0;childLayout=stackLayout;horizontal=1;startSize=26;fillColor=none;horizontalStack=0;resizeParent=1;resizeParentMax=0;resizeLast=0;collapsible=1;marginBottom=0;whiteSpace=wrap;html=1;" vertex="1" parent="1">
          <mxGeometry x="619" y="50" width="140" height="52" as="geometry" />
        </mxCell>
        <mxCell id="LCbmhWneloomzZQ0_-yc-18" value="&lt;u&gt;id&lt;/u&gt;" style="text;strokeColor=none;fillColor=none;align=left;verticalAlign=top;spacingLeft=4;spacingRight=4;overflow=hidden;rotatable=0;points=[[0,0.5],[1,0.5]];portConstraint=eastwest;whiteSpace=wrap;html=1;" vertex="1" parent="LCbmhWneloomzZQ0_-yc-16">
          <mxGeometry y="26" width="140" height="26" as="geometry" />
        </mxCell>
        <mxCell id="LCbmhWneloomzZQ0_-yc-24" value="" style="endArrow=none;html=1;rounded=0;entryX=0;entryY=0.5;entryDx=0;entryDy=0;exitX=1.014;exitY=0.019;exitDx=0;exitDy=0;exitPerimeter=0;" edge="1" parent="1" source="LCbmhWneloomzZQ0_-yc-2" target="LCbmhWneloomzZQ0_-yc-16">
          <mxGeometry relative="1" as="geometry">
            <mxPoint x="314" y="330" as="sourcePoint" />
            <mxPoint x="474" y="330" as="targetPoint" />
            <Array as="points" />
          </mxGeometry>
        </mxCell>
        <mxCell id="LCbmhWneloomzZQ0_-yc-25" value="1" style="resizable=0;html=1;whiteSpace=wrap;align=right;verticalAlign=bottom;" connectable="0" vertex="1" parent="LCbmhWneloomzZQ0_-yc-24">
          <mxGeometry x="1" relative="1" as="geometry" />
        </mxCell>
        <mxCell id="LCbmhWneloomzZQ0_-yc-26" value="Possède &amp;gt;" style="edgeLabel;html=1;align=center;verticalAlign=middle;resizable=0;points=[];" connectable="0" vertex="1" parent="LCbmhWneloomzZQ0_-yc-24">
          <mxGeometry x="0.093" y="1" relative="1" as="geometry">
            <mxPoint as="offset" />
          </mxGeometry>
        </mxCell>
        <mxCell id="LCbmhWneloomzZQ0_-yc-27" value="*" style="text;html=1;align=center;verticalAlign=middle;resizable=0;points=[];autosize=1;strokeColor=none;fillColor=none;" vertex="1" parent="1">
          <mxGeometry x="459" y="58" width="30" height="30" as="geometry" />
        </mxCell>
        <mxCell id="LCbmhWneloomzZQ0_-yc-28" value="Recettes" style="swimlane;fontStyle=0;childLayout=stackLayout;horizontal=1;startSize=26;fillColor=none;horizontalStack=0;resizeParent=1;resizeParentMax=0;resizeLast=0;collapsible=1;marginBottom=0;whiteSpace=wrap;html=1;" vertex="1" parent="1">
          <mxGeometry x="619" y="150" width="140" height="78" as="geometry" />
        </mxCell>
        <mxCell id="LCbmhWneloomzZQ0_-yc-29" value="&lt;u&gt;id&lt;/u&gt;" style="text;strokeColor=none;fillColor=none;align=left;verticalAlign=top;spacingLeft=4;spacingRight=4;overflow=hidden;rotatable=0;points=[[0,0.5],[1,0.5]];portConstraint=eastwest;whiteSpace=wrap;html=1;" vertex="1" parent="LCbmhWneloomzZQ0_-yc-28">
          <mxGeometry y="26" width="140" height="26" as="geometry" />
        </mxCell>
        <mxCell id="LCbmhWneloomzZQ0_-yc-43" value="objetCréé" style="text;strokeColor=none;fillColor=none;align=left;verticalAlign=top;spacingLeft=4;spacingRight=4;overflow=hidden;rotatable=0;points=[[0,0.5],[1,0.5]];portConstraint=eastwest;whiteSpace=wrap;html=1;" vertex="1" parent="LCbmhWneloomzZQ0_-yc-28">
          <mxGeometry y="52" width="140" height="26" as="geometry" />
        </mxCell>
        <mxCell id="LCbmhWneloomzZQ0_-yc-32" value="" style="endArrow=none;html=1;rounded=0;exitX=0.507;exitY=1.058;exitDx=0;exitDy=0;exitPerimeter=0;" edge="1" parent="1" source="LCbmhWneloomzZQ0_-yc-18" target="LCbmhWneloomzZQ0_-yc-28">
          <mxGeometry relative="1" as="geometry">
            <mxPoint x="314" y="330" as="sourcePoint" />
            <mxPoint x="474" y="330" as="targetPoint" />
          </mxGeometry>
        </mxCell>
        <mxCell id="LCbmhWneloomzZQ0_-yc-33" value="1..*" style="resizable=0;html=1;whiteSpace=wrap;align=right;verticalAlign=bottom;" connectable="0" vertex="1" parent="LCbmhWneloomzZQ0_-yc-32">
          <mxGeometry x="1" relative="1" as="geometry" />
        </mxCell>
        <mxCell id="LCbmhWneloomzZQ0_-yc-34" value="1" style="text;html=1;align=center;verticalAlign=middle;resizable=0;points=[];autosize=1;strokeColor=none;fillColor=none;" vertex="1" parent="1">
          <mxGeometry x="619" y="98" width="30" height="30" as="geometry" />
        </mxCell>
        <mxCell id="LCbmhWneloomzZQ0_-yc-35" value="&lt;i&gt;Objets&lt;/i&gt;" style="swimlane;fontStyle=0;childLayout=stackLayout;horizontal=1;startSize=26;fillColor=none;horizontalStack=0;resizeParent=1;resizeParentMax=0;resizeLast=0;collapsible=1;marginBottom=0;whiteSpace=wrap;html=1;" vertex="1" parent="1">
          <mxGeometry x="339" y="450" width="140" height="52" as="geometry" />
        </mxCell>
        <mxCell id="LCbmhWneloomzZQ0_-yc-106" value="&lt;u&gt;nom&lt;/u&gt;" style="text;strokeColor=none;fillColor=none;align=left;verticalAlign=top;spacingLeft=4;spacingRight=4;overflow=hidden;rotatable=0;points=[[0,0.5],[1,0.5]];portConstraint=eastwest;whiteSpace=wrap;html=1;" vertex="1" parent="LCbmhWneloomzZQ0_-yc-35">
          <mxGeometry y="26" width="140" height="26" as="geometry" />
        </mxCell>
        <mxCell id="LCbmhWneloomzZQ0_-yc-39" value="Ressources" style="swimlane;fontStyle=0;childLayout=stackLayout;horizontal=1;startSize=26;fillColor=none;horizontalStack=0;resizeParent=1;resizeParentMax=0;resizeLast=0;collapsible=1;marginBottom=0;whiteSpace=wrap;html=1;" vertex="1" parent="1">
          <mxGeometry x="509" y="550" width="140" height="52" as="geometry" />
        </mxCell>
        <mxCell id="LCbmhWneloomzZQ0_-yc-44" value="Consommables" style="swimlane;fontStyle=0;childLayout=stackLayout;horizontal=1;startSize=26;fillColor=none;horizontalStack=0;resizeParent=1;resizeParentMax=0;resizeLast=0;collapsible=1;marginBottom=0;whiteSpace=wrap;html=1;" vertex="1" parent="1">
          <mxGeometry x="339" y="550" width="140" height="78" as="geometry" />
        </mxCell>
        <mxCell id="LCbmhWneloomzZQ0_-yc-46" value="effet" style="text;strokeColor=none;fillColor=none;align=left;verticalAlign=top;spacingLeft=4;spacingRight=4;overflow=hidden;rotatable=0;points=[[0,0.5],[1,0.5]];portConstraint=eastwest;whiteSpace=wrap;html=1;" vertex="1" parent="LCbmhWneloomzZQ0_-yc-44">
          <mxGeometry y="26" width="140" height="26" as="geometry" />
        </mxCell>
        <mxCell id="LCbmhWneloomzZQ0_-yc-47" value="valeurNumEffet" style="text;strokeColor=none;fillColor=none;align=left;verticalAlign=top;spacingLeft=4;spacingRight=4;overflow=hidden;rotatable=0;points=[[0,0.5],[1,0.5]];portConstraint=eastwest;whiteSpace=wrap;html=1;" vertex="1" parent="LCbmhWneloomzZQ0_-yc-44">
          <mxGeometry y="52" width="140" height="26" as="geometry" />
        </mxCell>
        <mxCell id="LCbmhWneloomzZQ0_-yc-48" value="Equipement" style="swimlane;fontStyle=0;childLayout=stackLayout;horizontal=1;startSize=26;fillColor=none;horizontalStack=0;resizeParent=1;resizeParentMax=0;resizeLast=0;collapsible=1;marginBottom=0;whiteSpace=wrap;html=1;" vertex="1" parent="1">
          <mxGeometry x="169" y="550" width="140" height="52" as="geometry" />
        </mxCell>
        <mxCell id="LCbmhWneloomzZQ0_-yc-50" value="modificateurDeStats" style="text;strokeColor=none;fillColor=none;align=left;verticalAlign=top;spacingLeft=4;spacingRight=4;overflow=hidden;rotatable=0;points=[[0,0.5],[1,0.5]];portConstraint=eastwest;whiteSpace=wrap;html=1;" vertex="1" parent="LCbmhWneloomzZQ0_-yc-48">
          <mxGeometry y="26" width="140" height="26" as="geometry" />
        </mxCell>
        <mxCell id="LCbmhWneloomzZQ0_-yc-52" value="" style="endArrow=block;endSize=16;endFill=0;html=1;rounded=0;entryX=0.5;entryY=1;entryDx=0;entryDy=0;exitX=0.5;exitY=0;exitDx=0;exitDy=0;" edge="1" parent="1" source="LCbmhWneloomzZQ0_-yc-48" target="LCbmhWneloomzZQ0_-yc-35">
          <mxGeometry width="160" relative="1" as="geometry">
            <mxPoint x="229" y="530" as="sourcePoint" />
            <mxPoint x="409" y="430" as="targetPoint" />
            <Array as="points">
              <mxPoint x="239" y="530" />
              <mxPoint x="409" y="530" />
            </Array>
          </mxGeometry>
        </mxCell>
        <mxCell id="LCbmhWneloomzZQ0_-yc-54" value="" style="endArrow=none;html=1;rounded=0;entryX=0.5;entryY=0;entryDx=0;entryDy=0;" edge="1" parent="1" target="LCbmhWneloomzZQ0_-yc-44">
          <mxGeometry relative="1" as="geometry">
            <mxPoint x="409" y="530" as="sourcePoint" />
            <mxPoint x="409" y="430" as="targetPoint" />
          </mxGeometry>
        </mxCell>
        <mxCell id="LCbmhWneloomzZQ0_-yc-55" value="" style="resizable=0;html=1;whiteSpace=wrap;align=right;verticalAlign=bottom;" connectable="0" vertex="1" parent="LCbmhWneloomzZQ0_-yc-54">
          <mxGeometry x="1" relative="1" as="geometry" />
        </mxCell>
        <mxCell id="LCbmhWneloomzZQ0_-yc-56" value="" style="endArrow=none;html=1;rounded=0;entryX=0.593;entryY=-0.024;entryDx=0;entryDy=0;entryPerimeter=0;" edge="1" parent="1" target="LCbmhWneloomzZQ0_-yc-39">
          <mxGeometry relative="1" as="geometry">
            <mxPoint x="409" y="530" as="sourcePoint" />
            <mxPoint x="409" y="430" as="targetPoint" />
            <Array as="points">
              <mxPoint x="592" y="530" />
            </Array>
          </mxGeometry>
        </mxCell>
        <mxCell id="LCbmhWneloomzZQ0_-yc-57" value="" style="endArrow=none;html=1;rounded=0;exitX=0.771;exitY=1.019;exitDx=0;exitDy=0;exitPerimeter=0;entryX=1;entryY=0.5;entryDx=0;entryDy=0;" edge="1" parent="1" source="LCbmhWneloomzZQ0_-yc-43" target="LCbmhWneloomzZQ0_-yc-39">
          <mxGeometry relative="1" as="geometry">
            <mxPoint x="314" y="330" as="sourcePoint" />
            <mxPoint x="684" y="610" as="targetPoint" />
            <Array as="points">
              <mxPoint x="727" y="576" />
            </Array>
          </mxGeometry>
        </mxCell>
        <mxCell id="LCbmhWneloomzZQ0_-yc-58" value="A comme composant v" style="edgeLabel;html=1;align=center;verticalAlign=middle;resizable=0;points=[];" connectable="0" vertex="1" parent="LCbmhWneloomzZQ0_-yc-57">
          <mxGeometry x="-0.1026" y="3" relative="1" as="geometry">
            <mxPoint x="-2" as="offset" />
          </mxGeometry>
        </mxCell>
        <mxCell id="LCbmhWneloomzZQ0_-yc-59" value="0..1" style="text;html=1;align=center;verticalAlign=middle;resizable=0;points=[];autosize=1;strokeColor=none;fillColor=none;" vertex="1" parent="1">
          <mxGeometry x="684" y="248" width="40" height="30" as="geometry" />
        </mxCell>
        <mxCell id="LCbmhWneloomzZQ0_-yc-60" value="1..*" style="text;html=1;align=center;verticalAlign=middle;resizable=0;points=[];autosize=1;strokeColor=none;fillColor=none;" vertex="1" parent="1">
          <mxGeometry x="649" y="574" width="40" height="30" as="geometry" />
        </mxCell>
        <mxCell id="LCbmhWneloomzZQ0_-yc-63" value="Inventaire" style="swimlane;fontStyle=0;childLayout=stackLayout;horizontal=1;startSize=26;fillColor=none;horizontalStack=0;resizeParent=1;resizeParentMax=0;resizeLast=0;collapsible=1;marginBottom=0;whiteSpace=wrap;html=1;" vertex="1" parent="1">
          <mxGeometry x="328" y="270" width="140" height="78" as="geometry" />
        </mxCell>
        <mxCell id="LCbmhWneloomzZQ0_-yc-64" value="&lt;u&gt;id&lt;/u&gt;" style="text;strokeColor=none;fillColor=none;align=left;verticalAlign=top;spacingLeft=4;spacingRight=4;overflow=hidden;rotatable=0;points=[[0,0.5],[1,0.5]];portConstraint=eastwest;whiteSpace=wrap;html=1;" vertex="1" parent="LCbmhWneloomzZQ0_-yc-63">
          <mxGeometry y="26" width="140" height="26" as="geometry" />
        </mxCell>
        <mxCell id="LCbmhWneloomzZQ0_-yc-65" value="tailleMax" style="text;strokeColor=none;fillColor=none;align=left;verticalAlign=top;spacingLeft=4;spacingRight=4;overflow=hidden;rotatable=0;points=[[0,0.5],[1,0.5]];portConstraint=eastwest;whiteSpace=wrap;html=1;" vertex="1" parent="LCbmhWneloomzZQ0_-yc-63">
          <mxGeometry y="52" width="140" height="26" as="geometry" />
        </mxCell>
        <mxCell id="LCbmhWneloomzZQ0_-yc-67" value="" style="endArrow=none;html=1;rounded=0;entryX=0.5;entryY=0;entryDx=0;entryDy=0;exitX=0;exitY=0.083;exitDx=0;exitDy=0;exitPerimeter=0;" edge="1" parent="1" source="LCbmhWneloomzZQ0_-yc-70" target="LCbmhWneloomzZQ0_-yc-63">
          <mxGeometry relative="1" as="geometry">
            <mxPoint x="398" y="160" as="sourcePoint" />
            <mxPoint x="474" y="330" as="targetPoint" />
          </mxGeometry>
        </mxCell>
        <mxCell id="LCbmhWneloomzZQ0_-yc-68" value="Possède v" style="edgeLabel;html=1;align=center;verticalAlign=middle;resizable=0;points=[];" connectable="0" vertex="1" parent="LCbmhWneloomzZQ0_-yc-67">
          <mxGeometry x="0.0341" y="1" relative="1" as="geometry">
            <mxPoint x="-1" as="offset" />
          </mxGeometry>
        </mxCell>
        <mxCell id="LCbmhWneloomzZQ0_-yc-69" value="1" style="text;html=1;align=center;verticalAlign=middle;resizable=0;points=[];autosize=1;strokeColor=none;fillColor=none;" vertex="1" parent="1">
          <mxGeometry x="399" y="240" width="30" height="30" as="geometry" />
        </mxCell>
        <mxCell id="LCbmhWneloomzZQ0_-yc-70" value="1" style="text;html=1;align=center;verticalAlign=middle;resizable=0;points=[];autosize=1;strokeColor=none;fillColor=none;" vertex="1" parent="1">
          <mxGeometry x="399" y="182" width="30" height="30" as="geometry" />
        </mxCell>
        <mxCell id="LCbmhWneloomzZQ0_-yc-71" value="" style="endArrow=none;html=1;rounded=0;exitX=0.479;exitY=1.058;exitDx=0;exitDy=0;exitPerimeter=0;entryX=0.4;entryY=0.01;entryDx=0;entryDy=0;entryPerimeter=0;" edge="1" parent="1" source="LCbmhWneloomzZQ0_-yc-65" target="LCbmhWneloomzZQ0_-yc-35">
          <mxGeometry relative="1" as="geometry">
            <mxPoint x="394" y="340" as="sourcePoint" />
            <mxPoint x="474" y="330" as="targetPoint" />
          </mxGeometry>
        </mxCell>
        <mxCell id="LCbmhWneloomzZQ0_-yc-72" value="Est rempli de v" style="edgeLabel;html=1;align=center;verticalAlign=middle;resizable=0;points=[];" connectable="0" vertex="1" parent="LCbmhWneloomzZQ0_-yc-71">
          <mxGeometry x="0.0404" relative="1" as="geometry">
            <mxPoint as="offset" />
          </mxGeometry>
        </mxCell>
        <mxCell id="LCbmhWneloomzZQ0_-yc-73" value="*" style="text;html=1;align=center;verticalAlign=middle;resizable=0;points=[];autosize=1;strokeColor=none;fillColor=none;" vertex="1" parent="1">
          <mxGeometry x="399" y="428" width="30" height="30" as="geometry" />
        </mxCell>
        <mxCell id="LCbmhWneloomzZQ0_-yc-74" value="*" style="text;html=1;align=center;verticalAlign=middle;resizable=0;points=[];autosize=1;strokeColor=none;fillColor=none;" vertex="1" parent="1">
          <mxGeometry x="399" y="348" width="30" height="30" as="geometry" />
        </mxCell>
        <mxCell id="LCbmhWneloomzZQ0_-yc-89" value="Archétype" style="swimlane;fontStyle=0;childLayout=stackLayout;horizontal=1;startSize=26;fillColor=none;horizontalStack=0;resizeParent=1;resizeParentMax=0;resizeLast=0;collapsible=1;marginBottom=0;whiteSpace=wrap;html=1;" vertex="1" parent="1">
          <mxGeometry y="270" width="140" height="52" as="geometry" />
        </mxCell>
        <mxCell id="LCbmhWneloomzZQ0_-yc-90" value="&lt;u&gt;nom&lt;/u&gt;" style="text;strokeColor=none;fillColor=none;align=left;verticalAlign=top;spacingLeft=4;spacingRight=4;overflow=hidden;rotatable=0;points=[[0,0.5],[1,0.5]];portConstraint=eastwest;whiteSpace=wrap;html=1;" vertex="1" parent="LCbmhWneloomzZQ0_-yc-89">
          <mxGeometry y="26" width="140" height="26" as="geometry" />
        </mxCell>
        <mxCell id="LCbmhWneloomzZQ0_-yc-93" value="Sort" style="swimlane;fontStyle=0;childLayout=stackLayout;horizontal=1;startSize=26;fillColor=none;horizontalStack=0;resizeParent=1;resizeParentMax=0;resizeLast=0;collapsible=1;marginBottom=0;whiteSpace=wrap;html=1;" vertex="1" parent="1">
          <mxGeometry y="398" width="140" height="104" as="geometry" />
        </mxCell>
        <mxCell id="LCbmhWneloomzZQ0_-yc-94" value="&lt;u&gt;nom&lt;/u&gt;" style="text;strokeColor=none;fillColor=none;align=left;verticalAlign=top;spacingLeft=4;spacingRight=4;overflow=hidden;rotatable=0;points=[[0,0.5],[1,0.5]];portConstraint=eastwest;whiteSpace=wrap;html=1;" vertex="1" parent="LCbmhWneloomzZQ0_-yc-93">
          <mxGeometry y="26" width="140" height="26" as="geometry" />
        </mxCell>
        <mxCell id="LCbmhWneloomzZQ0_-yc-95" value="degatsParDefaut" style="text;strokeColor=none;fillColor=none;align=left;verticalAlign=top;spacingLeft=4;spacingRight=4;overflow=hidden;rotatable=0;points=[[0,0.5],[1,0.5]];portConstraint=eastwest;whiteSpace=wrap;html=1;" vertex="1" parent="LCbmhWneloomzZQ0_-yc-93">
          <mxGeometry y="52" width="140" height="26" as="geometry" />
        </mxCell>
        <mxCell id="LCbmhWneloomzZQ0_-yc-96" value="statPourDegats" style="text;strokeColor=none;fillColor=none;align=left;verticalAlign=top;spacingLeft=4;spacingRight=4;overflow=hidden;rotatable=0;points=[[0,0.5],[1,0.5]];portConstraint=eastwest;whiteSpace=wrap;html=1;" vertex="1" parent="LCbmhWneloomzZQ0_-yc-93">
          <mxGeometry y="78" width="140" height="26" as="geometry" />
        </mxCell>
        <mxCell id="LCbmhWneloomzZQ0_-yc-98" value="" style="endArrow=none;html=1;rounded=0;exitX=0.429;exitY=1.038;exitDx=0;exitDy=0;exitPerimeter=0;entryX=0.429;entryY=0.01;entryDx=0;entryDy=0;entryPerimeter=0;" edge="1" parent="1" source="LCbmhWneloomzZQ0_-yc-90" target="LCbmhWneloomzZQ0_-yc-93">
          <mxGeometry relative="1" as="geometry">
            <mxPoint x="310" y="390" as="sourcePoint" />
            <mxPoint x="470" y="390" as="targetPoint" />
          </mxGeometry>
        </mxCell>
        <mxCell id="LCbmhWneloomzZQ0_-yc-105" value="Possède v" style="edgeLabel;html=1;align=center;verticalAlign=middle;resizable=0;points=[];" connectable="0" vertex="1" parent="LCbmhWneloomzZQ0_-yc-98">
          <mxGeometry x="-0.1056" relative="1" as="geometry">
            <mxPoint as="offset" />
          </mxGeometry>
        </mxCell>
        <mxCell id="LCbmhWneloomzZQ0_-yc-99" value="A comme archétype &amp;lt;" style="endArrow=none;html=1;rounded=0;exitX=0.25;exitY=0;exitDx=0;exitDy=0;" edge="1" parent="1" source="LCbmhWneloomzZQ0_-yc-89">
          <mxGeometry relative="1" as="geometry">
            <mxPoint x="310" y="390" as="sourcePoint" />
            <mxPoint x="380" y="50" as="targetPoint" />
            <Array as="points">
              <mxPoint x="35" y="20" />
              <mxPoint x="380" y="20" />
            </Array>
          </mxGeometry>
        </mxCell>
        <mxCell id="LCbmhWneloomzZQ0_-yc-100" value="1" style="text;html=1;align=center;verticalAlign=middle;resizable=0;points=[];autosize=1;strokeColor=none;fillColor=none;" vertex="1" parent="1">
          <mxGeometry x="35" y="248" width="30" height="30" as="geometry" />
        </mxCell>
        <mxCell id="LCbmhWneloomzZQ0_-yc-101" value="*" style="text;html=1;align=center;verticalAlign=middle;resizable=0;points=[];autosize=1;strokeColor=none;fillColor=none;" vertex="1" parent="1">
          <mxGeometry x="355" y="28" width="30" height="30" as="geometry" />
        </mxCell>
        <mxCell id="LCbmhWneloomzZQ0_-yc-102" value="1" style="text;html=1;align=center;verticalAlign=middle;resizable=0;points=[];autosize=1;strokeColor=none;fillColor=none;" vertex="1" parent="1">
          <mxGeometry x="55" y="368" width="30" height="30" as="geometry" />
        </mxCell>
        <mxCell id="LCbmhWneloomzZQ0_-yc-103" value="1" style="text;html=1;align=center;verticalAlign=middle;resizable=0;points=[];autosize=1;strokeColor=none;fillColor=none;" vertex="1" parent="1">
          <mxGeometry x="55" y="318" width="30" height="30" as="geometry" />
        </mxCell>
        <mxCell id="LCbmhWneloomzZQ0_-yc-107" value="" style="endArrow=none;html=1;rounded=0;exitX=0.579;exitY=1.077;exitDx=0;exitDy=0;exitPerimeter=0;" edge="1" parent="1" source="LCbmhWneloomzZQ0_-yc-47">
          <mxGeometry relative="1" as="geometry">
            <mxPoint x="310" y="360" as="sourcePoint" />
            <mxPoint x="420" y="50" as="targetPoint" />
            <Array as="points">
              <mxPoint x="420" y="680" />
              <mxPoint x="810" y="680" />
              <mxPoint x="810" y="20" />
              <mxPoint x="420" y="20" />
            </Array>
          </mxGeometry>
        </mxCell>
        <mxCell id="LCbmhWneloomzZQ0_-yc-108" value="Consomme v" style="edgeLabel;html=1;align=center;verticalAlign=middle;resizable=0;points=[];" connectable="0" vertex="1" parent="LCbmhWneloomzZQ0_-yc-107">
          <mxGeometry x="-0.0433" y="-3" relative="1" as="geometry">
            <mxPoint x="-33" y="-10" as="offset" />
          </mxGeometry>
        </mxCell>
        <mxCell id="LCbmhWneloomzZQ0_-yc-109" value="SlotEquipement" style="swimlane;fontStyle=0;childLayout=stackLayout;horizontal=1;startSize=26;fillColor=none;horizontalStack=0;resizeParent=1;resizeParentMax=0;resizeLast=0;collapsible=1;marginBottom=0;whiteSpace=wrap;html=1;" vertex="1" parent="1">
          <mxGeometry x="169" y="248" width="140" height="78" as="geometry" />
        </mxCell>
        <mxCell id="LCbmhWneloomzZQ0_-yc-110" value="&lt;u&gt;id&lt;/u&gt;" style="text;strokeColor=none;fillColor=none;align=left;verticalAlign=top;spacingLeft=4;spacingRight=4;overflow=hidden;rotatable=0;points=[[0,0.5],[1,0.5]];portConstraint=eastwest;whiteSpace=wrap;html=1;" vertex="1" parent="LCbmhWneloomzZQ0_-yc-109">
          <mxGeometry y="26" width="140" height="26" as="geometry" />
        </mxCell>
        <mxCell id="LCbmhWneloomzZQ0_-yc-111" value="type" style="text;strokeColor=none;fillColor=none;align=left;verticalAlign=top;spacingLeft=4;spacingRight=4;overflow=hidden;rotatable=0;points=[[0,0.5],[1,0.5]];portConstraint=eastwest;whiteSpace=wrap;html=1;" vertex="1" parent="LCbmhWneloomzZQ0_-yc-109">
          <mxGeometry y="52" width="140" height="26" as="geometry" />
        </mxCell>
        <mxCell id="LCbmhWneloomzZQ0_-yc-114" value="" style="endArrow=none;html=1;rounded=0;exitX=0.643;exitY=-0.006;exitDx=0;exitDy=0;exitPerimeter=0;entryX=0;entryY=0.5;entryDx=0;entryDy=0;" edge="1" parent="1" source="LCbmhWneloomzZQ0_-yc-109" target="LCbmhWneloomzZQ0_-yc-4">
          <mxGeometry relative="1" as="geometry">
            <mxPoint x="310" y="370" as="sourcePoint" />
            <mxPoint x="470" y="370" as="targetPoint" />
            <Array as="points">
              <mxPoint x="260" y="143" />
            </Array>
          </mxGeometry>
        </mxCell>
        <mxCell id="LCbmhWneloomzZQ0_-yc-120" value="Possède v" style="edgeLabel;html=1;align=center;verticalAlign=middle;resizable=0;points=[];" connectable="0" vertex="1" parent="LCbmhWneloomzZQ0_-yc-114">
          <mxGeometry x="-0.2638" relative="1" as="geometry">
            <mxPoint as="offset" />
          </mxGeometry>
        </mxCell>
        <mxCell id="LCbmhWneloomzZQ0_-yc-115" value="" style="endArrow=none;html=1;rounded=0;exitX=0.179;exitY=1.058;exitDx=0;exitDy=0;exitPerimeter=0;entryX=0.186;entryY=-0.058;entryDx=0;entryDy=0;entryPerimeter=0;" edge="1" parent="1" source="LCbmhWneloomzZQ0_-yc-111" target="LCbmhWneloomzZQ0_-yc-48">
          <mxGeometry relative="1" as="geometry">
            <mxPoint x="310" y="370" as="sourcePoint" />
            <mxPoint x="470" y="370" as="targetPoint" />
          </mxGeometry>
        </mxCell>
        <mxCell id="LCbmhWneloomzZQ0_-yc-121" value="Contient v" style="edgeLabel;html=1;align=center;verticalAlign=middle;resizable=0;points=[];" connectable="0" vertex="1" parent="LCbmhWneloomzZQ0_-yc-115">
          <mxGeometry x="0.1376" y="-2" relative="1" as="geometry">
            <mxPoint as="offset" />
          </mxGeometry>
        </mxCell>
        <mxCell id="LCbmhWneloomzZQ0_-yc-116" value="1" style="text;html=1;align=center;verticalAlign=middle;resizable=0;points=[];autosize=1;strokeColor=none;fillColor=none;" vertex="1" parent="1">
          <mxGeometry x="190" y="328" width="30" height="30" as="geometry" />
        </mxCell>
        <mxCell id="LCbmhWneloomzZQ0_-yc-117" value="1" style="text;html=1;align=center;verticalAlign=middle;resizable=0;points=[];autosize=1;strokeColor=none;fillColor=none;" vertex="1" parent="1">
          <mxGeometry x="190" y="520" width="30" height="30" as="geometry" />
        </mxCell>
        <mxCell id="LCbmhWneloomzZQ0_-yc-118" value="1..*" style="text;html=1;align=center;verticalAlign=middle;resizable=0;points=[];autosize=1;strokeColor=none;fillColor=none;" vertex="1" parent="1">
          <mxGeometry x="255" y="218" width="40" height="30" as="geometry" />
        </mxCell>
        <mxCell id="LCbmhWneloomzZQ0_-yc-119" value="1" style="text;html=1;align=center;verticalAlign=middle;resizable=0;points=[];autosize=1;strokeColor=none;fillColor=none;" vertex="1" parent="1">
          <mxGeometry x="295" y="138" width="30" height="30" as="geometry" />
        </mxCell>
        <mxCell id="LCbmhWneloomzZQ0_-yc-122" value="Marche" style="swimlane;fontStyle=0;childLayout=stackLayout;horizontal=1;startSize=26;fillColor=none;horizontalStack=0;resizeParent=1;resizeParentMax=0;resizeLast=0;collapsible=1;marginBottom=0;whiteSpace=wrap;html=1;" vertex="1" parent="1">
          <mxGeometry x="530" y="248" width="140" height="78" as="geometry" />
        </mxCell>
        <mxCell id="LCbmhWneloomzZQ0_-yc-123" value="&lt;u&gt;id&lt;/u&gt;" style="text;strokeColor=none;fillColor=none;align=left;verticalAlign=top;spacingLeft=4;spacingRight=4;overflow=hidden;rotatable=0;points=[[0,0.5],[1,0.5]];portConstraint=eastwest;whiteSpace=wrap;html=1;" vertex="1" parent="LCbmhWneloomzZQ0_-yc-122">
          <mxGeometry y="26" width="140" height="26" as="geometry" />
        </mxCell>
        <mxCell id="LCbmhWneloomzZQ0_-yc-124" value="nom" style="text;strokeColor=none;fillColor=none;align=left;verticalAlign=top;spacingLeft=4;spacingRight=4;overflow=hidden;rotatable=0;points=[[0,0.5],[1,0.5]];portConstraint=eastwest;whiteSpace=wrap;html=1;" vertex="1" parent="LCbmhWneloomzZQ0_-yc-122">
          <mxGeometry y="52" width="140" height="26" as="geometry" />
        </mxCell>
        <mxCell id="LCbmhWneloomzZQ0_-yc-126" value="" style="endArrow=none;html=1;rounded=0;entryX=1.014;entryY=0.154;entryDx=0;entryDy=0;entryPerimeter=0;exitX=0.579;exitY=1.038;exitDx=0;exitDy=0;exitPerimeter=0;" edge="1" parent="1" source="LCbmhWneloomzZQ0_-yc-124" target="LCbmhWneloomzZQ0_-yc-106">
          <mxGeometry relative="1" as="geometry">
            <mxPoint x="310" y="470" as="sourcePoint" />
            <mxPoint x="470" y="470" as="targetPoint" />
            <Array as="points">
              <mxPoint x="610" y="480" />
            </Array>
          </mxGeometry>
        </mxCell>
        <mxCell id="LCbmhWneloomzZQ0_-yc-127" value="Possède v" style="edgeLabel;html=1;align=center;verticalAlign=middle;resizable=0;points=[];" connectable="0" vertex="1" parent="LCbmhWneloomzZQ0_-yc-126">
          <mxGeometry x="-0.0752" y="1" relative="1" as="geometry">
            <mxPoint as="offset" />
          </mxGeometry>
        </mxCell>
        <mxCell id="LCbmhWneloomzZQ0_-yc-128" value="" style="endArrow=none;html=1;rounded=0;exitX=1;exitY=0.5;exitDx=0;exitDy=0;entryX=0.093;entryY=-0.032;entryDx=0;entryDy=0;entryPerimeter=0;" edge="1" parent="1" source="LCbmhWneloomzZQ0_-yc-3" target="LCbmhWneloomzZQ0_-yc-122">
          <mxGeometry relative="1" as="geometry">
            <mxPoint x="310" y="340" as="sourcePoint" />
            <mxPoint x="470" y="340" as="targetPoint" />
            <Array as="points">
              <mxPoint x="544" y="116" />
            </Array>
          </mxGeometry>
        </mxCell>
        <mxCell id="LCbmhWneloomzZQ0_-yc-129" value="Achète v" style="edgeLabel;html=1;align=center;verticalAlign=middle;resizable=0;points=[];" connectable="0" vertex="1" parent="LCbmhWneloomzZQ0_-yc-128">
          <mxGeometry x="0.0872" y="-1" relative="1" as="geometry">
            <mxPoint x="-13" y="14" as="offset" />
          </mxGeometry>
        </mxCell>
        <mxCell id="LCbmhWneloomzZQ0_-yc-130" value="Prix" style="swimlane;fontStyle=0;childLayout=stackLayout;horizontal=1;startSize=26;fillColor=none;horizontalStack=0;resizeParent=1;resizeParentMax=0;resizeLast=0;collapsible=1;marginBottom=0;whiteSpace=wrap;html=1;" vertex="1" parent="1">
          <mxGeometry x="450" y="368" width="140" height="52" as="geometry" />
        </mxCell>
        <mxCell id="LCbmhWneloomzZQ0_-yc-131" value="prix" style="text;strokeColor=none;fillColor=none;align=left;verticalAlign=top;spacingLeft=4;spacingRight=4;overflow=hidden;rotatable=0;points=[[0,0.5],[1,0.5]];portConstraint=eastwest;whiteSpace=wrap;html=1;" vertex="1" parent="LCbmhWneloomzZQ0_-yc-130">
          <mxGeometry y="26" width="140" height="26" as="geometry" />
        </mxCell>
        <mxCell id="LCbmhWneloomzZQ0_-yc-134" value="" style="endArrow=none;dashed=1;html=1;rounded=0;entryX=1.007;entryY=0.25;entryDx=0;entryDy=0;entryPerimeter=0;" edge="1" parent="1" target="LCbmhWneloomzZQ0_-yc-131">
          <mxGeometry width="50" height="50" relative="1" as="geometry">
            <mxPoint x="610" y="400" as="sourcePoint" />
            <mxPoint x="420" y="310" as="targetPoint" />
          </mxGeometry>
        </mxCell>
        <mxCell id="LCbmhWneloomzZQ0_-yc-136" value="1" style="text;html=1;align=center;verticalAlign=middle;resizable=0;points=[];autosize=1;strokeColor=none;fillColor=none;" vertex="1" parent="1">
          <mxGeometry x="424" y="628" width="30" height="30" as="geometry" />
        </mxCell>
        <mxCell id="LCbmhWneloomzZQ0_-yc-137" value="*" style="text;html=1;align=center;verticalAlign=middle;resizable=0;points=[];autosize=1;strokeColor=none;fillColor=none;" vertex="1" parent="1">
          <mxGeometry x="420" y="28" width="30" height="30" as="geometry" />
        </mxCell>
      </root>
    </mxGraphModel>
  </diagram>
</mxfile>
